:SAMPLES-PER-SECOND 30
:FULLY-SPECIFIED
:DEGREES
472
root  9.00859 37.4001 17.7215 177.266 81.5575 -178.99
RightUpLeg  24.4257 -12.7742 -7.41533
RightLeg  13.8921 2.69786 1.42103
RightFoot  -21.878 0.669153 8.84479
RightToes  -2.21189e-009 0 -3.6325e-017
Spine  8.32413 -0.070074 7.15013
Spine1  10.114 1.96923 -5.93695
HEad  -1.18819 3.04487 -3.81304
LeftShoulder1  -0.0811478 3.72396 -30.4864
LeftArm  1.23622 16.3635 -40.1467
LeftForeArm  22.7767 -15.0495 -6.68011
LeftHand  -0.0335847 5.55182 -0.989102
RightShoulder  -0.630371 -5.35341 27.366
RightArm  16.8898 -2.93599 45.7229
RightForeArm  3.12598 15.0803 6.01035
RightHand  -0.204386 3.4953 -2.9278
LeftUpLeg  -23.96 5.26216 -2.40418
LeftLeg  9.76663 11.4147 0.246004
LeftFoot  1.24252 -0.444673 3.55041
LeftToes  -4.03379e-008 1.61488e-010 -5.81581e-011
473
root  10.6028 37.1544 17.3575 167.207 82.0848 170.541
RightUpLeg  25.2036 -12.4616 -10.3317
RightLeg  17.0057 5.22376 1.64814
RightFoot  -21.2221 0.982761 12.9602
RightToes  -2.21189e-009 0 -3.6325e-017
Spine  7.91699 0.405603 5.13351
Spine1  10.1599 2.52268 -6.93942
HEad  -1.28347 2.776 -2.82395
LeftShoulder1  -0.225038 4.10774 -31.1804
LeftArm  -1.32262 17.1102 -38.3968
LeftForeArm  23.5788 -13.672 -6.83304
LeftHand  -0.0230358 4.93231 -0.227944
RightShoulder  -0.650716 -5.38762 27.8416
RightArm  17.3542 -3.53557 46.6155
RightForeArm  5.90373 12.7973 6.88708
RightHand  -0.198415 3.35051 -2.8803
LeftUpLeg  -25.1486 7.94257 -5.10325
LeftLeg  14.3102 9.77691 1.57177
LeftFoot  8.89508 -1.40803 7.75619
LeftToes  -4.03379e-008 1.61488e-010 -5.81581e-011
474
root  12.1501 36.9146 17.0453 155.666 80.3915 159.515
RightUpLeg  25.2598 -11.2549 -12.8591
RightLeg  23.2227 4.35168 1.79277
RightFoot  -18.7352 1.07464 19.0645
RightToes  -2.21189e-009 0 -3.6325e-017
Spine  9.05995 0.531655 1.45967
Spine1  9.66865 2.07599 -6.35567
HEad  -1.31843 1.54713 -2.22646
LeftShoulder1  -0.179681 3.98362 -31.3326
LeftArm  -3.27546 16.9888 -37.3749
LeftForeArm  24.3469 -11.6093 -7.17246
LeftHand  -0.0296228 5.4358 -0.379414
RightShoulder  -0.63707 -5.34713 27.8436
RightArm  16.7109 -4.81259 47.8568
RightForeArm  9.83945 11.1579 7.29592
RightHand  -0.169536 2.65226 -2.65881
LeftUpLeg  -25.9524 10.1525 -8.9125
LeftLeg  21.2995 6.08059 3.12788
LeftFoot  6.78863 -1.68575 10.2841
LeftToes  -4.03379e-008 1.61488e-010 -5.81581e-011
475
root  13.5381 36.8301 16.6878 152.297 78.3823 156.422
RightUpLeg  21.9206 -9.93599 -14.0274
RightLeg  33.4285 2.43455 1.45205
RightFoot  -11.2353 -0.0526216 23.2523
RightToes  -2.21189e-009 0 -3.6325e-017
Spine  10.2376 0.331891 -0.561352
Spine1  9.45673 1.60661 -6.5184
HEad  -2.0284 1.05341 -2.24014
LeftShoulder1  -0.114186 3.80858 -31.2621
LeftArm  -5.76385 15.4053 -37.3552
LeftForeArm  25.9583 -8.7654 -7.25566
LeftHand  -0.0308698 5.62307 -0.626967
RightShoulder  -0.550811 -5.1119 27.4751
RightArm  16.0969 -6.20384 49.1935
RightForeArm  12.1335 10.4906 7.36429
RightHand  -0.155788 2.798 -2.42184
LeftUpLeg  -25.2045 8.94957 -10.3181
LeftLeg  25.3537 6.266 3.56974
LeftFoot  3.91102 -1.54825 11.3296
LeftToes  -4.03379e-008 1.61488e-010 -5.81581e-011
476
root  14.7798 36.9249 16.3146 147.072 77.9474 150.994
RightUpLeg  14.3918 -5.9194 -13.772
RightLeg  46.2915 1.36292 1.27043
RightFoot  2.1543 -2.05227 18.1649
RightToes  -2.21189e-009 0 -3.6325e-017
Spine  11.204 0.663371 -1.66092
Spine1  9.28866 1.94383 -7.3368
HEad  -2.23352 0.891603 -3.03697
LeftShoulder1  -0.00940294 3.52963 -30.8875
LeftArm  -6.48507 13.7692 -38.198
LeftForeArm  26.0976 -7.60452 -7.1662
LeftHand  -0.0395875 6.20558 -0.967339
RightShoulder  -0.472772 -4.89837 27.0059
RightArm  17.5569 -6.50469 50.3024
RightForeArm  12.19 10.5579 7.76563
RightHand  -0.199635 2.62087 -3.07591
LeftUpLeg  -23.8402 9.23559 -11.5594
LeftLeg  27.0505 6.43138 3.90928
LeftFoot  0.764114 -1.20694 11.2894
LeftToes  -4.03379e-008 1.61488e-010 -5.81581e-011
477
root  15.902 36.9882 16.0128 141.06 77.2003 144.946
RightUpLeg  6.73708 -1.73181 -13.6266
RightLeg  57.3462 1.88487 2.77003
RightFoot  11.8615 -2.32509 11.3547
RightToes  -2.21189e-009 0 -3.6325e-017
Spine  12.3437 0.840976 -4.04347
Spine1  9.44098 1.64112 -7.0856
HEad  -2.49362 1.10867 -4.32368
LeftShoulder1  0.00152912 3.49927 -30.859
LeftArm  -6.47506 12.2927 -38.8285
LeftForeArm  26.3377 -8.36626 -7.11109
LeftHand  -0.0321573 5.86202 -1.26158
RightShoulder  -0.356297 -4.56808 26.4351
RightArm  20.8973 -5.38551 51.1498
RightForeArm  12.1416 11.8173 7.97639
RightHand  -0.10504 1.7858 -1.87736
LeftUpLeg  -22.1137 9.10198 -12.9742
LeftLeg  28.0514 6.88753 4.32202
LeftFoot  -1.85513 -0.891581 10.842
LeftToes  -4.03379e-008 1.61488e-010 -5.81581e-011
478
root  17.0195 37.1693 15.7001 141.833 76.2819 146.072
RightUpLeg  0.702821 0.917309 -12.8137
RightLeg  64.841 2.492 5.18444
RightFoot  7.81135 -1.78777 10.9051
RightToes  -2.21189e-009 0 -3.6325e-017
Spine  13.3882 0.453197 -5.2307
Spine1  9.90111 0.840461 -6.60832
HEad  -3.10696 1.61346 -4.1614
LeftShoulder1  0.0872272 3.26431 -30.2665
LeftArm  -5.15689 11.0088 -39.9814
LeftForeArm  25.776 -10.2484 -7.22475
LeftHand  -0.02486 5.41148 -0.37063
RightShoulder  -0.378996 -4.63948 26.3587
RightArm  25.1923 -4.22684 51.4171
RightForeArm  9.9932 14.8821 7.22014
RightHand  -0.113643 2.32696 -1.89827
LeftUpLeg  -19.6241 8.57204 -13.2161
LeftLeg  28.237 6.78979 4.30138
LeftFoot  -4.05919 -0.630359 10.2655
LeftToes  -4.03379e-008 1.61488e-010 -5.81581e-011
479
root  18.135 37.3996 15.3767 145.122 75.4021 149.449
RightUpLeg  -5.48542 2.56092 -12.042
RightLeg  69.003 2.54168 6.54521
RightFoot  5.40971 -1.49403 10.3737
RightToes  -2.21189e-009 0 -3.6325e-017
Spine  14.2816 -0.107714 -5.50727
Spine1  9.73257 0.0167234 -6.26057
HEad  -2.48471 1.86924 -4.27177
LeftShoulder1  0.167375 3.03848 -29.859
LeftArm  -1.50599 9.50471 -40.7112
LeftForeArm  23.6926 -12.9935 -7.19737
LeftHand  -0.0312891 5.56216 -0.358196
RightShoulder  -0.382308 -4.65395 26.221
RightArm  27.171 -4.4095 51.2975
RightForeArm  6.41559 19.1401 5.43776
RightHand  -0.143431 2.8062 -2.25306
LeftUpLeg  -17.1487 8.11322 -12.9952
LeftLeg  27.7917 6.35066 3.98664
LeftFoot  -6.04574 -0.413288 9.69319
LeftToes  -4.03379e-008 1.61488e-010 -5.81581e-011
480
root  19.2936 37.6578 15.066 147.805 74.3155 152.227
RightUpLeg  -11.2343 3.76729 -11.5634
RightLeg  70.0792 2.03097 5.47275
RightFoot  4.53886 -1.13895 8.36715
RightToes  -2.21189e-009 0 -3.6325e-017
Spine  14.9808 -0.578731 -6.09369
Spine1  9.5778 -0.737041 -5.56775
HEad  -2.40435 1.6794 -3.96252
LeftShoulder1  0.181208 2.99212 -29.2957
LeftArm  3.1815 8.32862 -41.6403
LeftForeArm  19.9736 -17.0341 -5.98533
LeftHand  -0.025381 4.45584 0.112644
RightShoulder  -0.42924 -4.78771 26.4845
RightArm  26.2176 -4.47094 50.577
RightForeArm  3.67094 22.8817 4.80098
RightHand  -0.15607 3.01172 -2.38087
LeftUpLeg  -14.2015 7.55773 -12.7957
LeftLeg  26.565 5.85693 3.54592
LeftFoot  -7.74547 -0.23714 9.04085
LeftToes  -4.03379e-008 1.61488e-010 -5.81581e-011
481
root  20.4901 37.885 14.7354 150.93 73.0907 155.735
RightUpLeg  -15.6579 4.42823 -11.1183
RightLeg  67.8367 1.61287 3.69055
RightFoot  2.66832 -0.904601 7.51988
RightToes  -2.21189e-009 0 -3.6325e-017
Spine  15.5512 -0.880377 -6.80296
Spine1  9.60548 -1.58468 -3.83992
HEad  -2.32715 1.20869 -4.37327
LeftShoulder1  0.163261 3.05012 -29.8646
LeftArm  6.923 7.13266 -41.7357
LeftForeArm  16.8769 -21.5103 -4.49074
LeftHand  -0.0370161 3.7358 1.2077
RightShoulder  -0.364858 -4.61585 25.7886
RightArm  22.2987 -5.11505 50.0069
RightForeArm  3.62243 26.5796 5.50579
RightHand  -0.231932 3.98799 -3.13221
LeftUpLeg  -10.9561 6.91229 -12.2883
LeftLeg  25.4427 5.23254 3.02617
LeftFoot  -9.38343 -0.0929789 8.73019
LeftToes  -4.03379e-008 1.61488e-010 -5.81581e-011
